# Blender v2.90.1 OBJ File: ''
# www.blender.org
mtllib Plane.mtl
o Plane
v 0.894384 0.000000 -0.382159
v -1.000000 0.000000 -1.000000
v 0.894384 0.000000 0.382159
v -1.000000 0.000000 1.000000
v 0.775994 0.000000 -0.532758
v 0.608172 0.000000 -0.681052
v 0.388117 0.000000 -0.835650
v 0.111111 0.000000 -1.000000
v -0.111111 0.000000 -1.000000
v -0.333333 0.000000 -1.000000
v -0.555556 0.000000 -1.000000
v -0.777778 0.000000 -1.000000
v -0.777778 0.000000 1.000000
v -0.555556 0.000000 1.000000
v -0.333333 0.000000 1.000000
v -0.111111 0.000000 1.000000
v 0.111111 0.000000 1.000000
v 0.388117 0.000000 0.835650
v 0.608172 0.000000 0.681052
v 0.775994 0.000000 0.532758
v 0.894384 0.000000 0.297235
v 0.894384 0.000000 0.212311
v 0.894384 0.000000 0.127386
v 0.894384 0.000000 0.042462
v 0.894384 0.000000 -0.042462
v 0.894384 0.000000 -0.127386
v 0.894384 0.000000 -0.212311
v 0.894384 0.000000 -0.297235
v -1.000000 0.000000 -0.777778
v -1.000000 0.000000 -0.555556
v -1.000000 0.000000 -0.333333
v -1.000000 0.000000 -0.111111
v -1.000000 0.000000 0.111111
v -1.000000 0.000000 0.333333
v -1.000000 0.000000 0.555556
v -1.000000 0.000000 0.777778
v 0.775994 0.000000 -0.414367
v 0.775994 0.000000 -0.295977
v 0.775994 0.000000 -0.177586
v 0.775994 0.000000 -0.059195
v 0.775994 0.000000 0.059195
v 0.775994 0.000000 0.177586
v 0.775994 0.000000 0.295977
v 0.775994 0.000000 0.414367
v 0.608172 0.000000 -0.529707
v 0.608172 0.000000 -0.378362
v 0.608172 0.000000 -0.227017
v 0.608172 0.000000 -0.075672
v 0.608172 0.000000 0.075672
v 0.608172 0.000000 0.227017
v 0.608172 0.000000 0.378362
v 0.608172 0.000000 0.529707
v 0.388117 0.000000 -0.649950
v 0.388117 0.000000 -0.464250
v 0.388117 0.000000 -0.278550
v 0.388117 0.000000 -0.092850
v 0.388117 0.000000 0.092850
v 0.388117 0.000000 0.278550
v 0.388117 0.000000 0.464250
v 0.388117 0.000000 0.649950
v 0.111111 0.000000 -0.777778
v 0.111111 0.000000 -0.555556
v 0.111111 0.000000 -0.333333
v 0.111111 0.000000 -0.111111
v 0.111111 0.000000 0.111111
v 0.111111 0.000000 0.333333
v 0.111111 0.000000 0.555556
v 0.111111 0.000000 0.777778
v -0.111111 0.000000 -0.777778
v -0.111111 0.000000 -0.555556
v -0.111111 0.000000 -0.333333
v -0.111111 0.000000 -0.111111
v -0.111111 0.000000 0.111111
v -0.111111 0.000000 0.333333
v -0.111111 0.000000 0.555556
v -0.111111 0.000000 0.777778
v -0.333333 0.000000 -0.777778
v -0.333333 0.000000 -0.555556
v -0.333333 0.000000 -0.333333
v -0.333333 0.000000 -0.111111
v -0.333333 0.000000 0.111111
v -0.333333 0.000000 0.333333
v -0.333333 0.000000 0.555556
v -0.333333 0.000000 0.777778
v -0.555556 0.000000 -0.777778
v -0.555556 0.000000 -0.555556
v -0.555556 0.000000 -0.333333
v -0.555556 0.000000 -0.111111
v -0.555556 0.000000 0.111111
v -0.555556 0.000000 0.333333
v -0.555556 0.000000 0.555556
v -0.555556 0.000000 0.777778
v -0.777778 0.000000 -0.777778
v -0.777778 0.000000 -0.555556
v -0.777778 0.000000 -0.333333
v -0.777778 0.000000 -0.111111
v -0.777778 0.000000 0.111111
v -0.777778 0.000000 0.333333
v -0.777778 0.000000 0.555556
v -0.777778 0.000000 0.777778
vt 0.858437 0.167040
vt 0.859247 0.063184
vt 0.963102 0.063994
vt 0.962293 0.167849
vt 0.627766 0.946775
vt 0.682939 0.891871
vt 0.738269 0.892302
vt 0.667455 0.947084
vt 0.737454 0.813860
vt 0.808185 0.814411
vt 0.794451 0.711455
vt 0.881238 0.712131
vt 0.855200 0.582462
vt 0.959056 0.583271
vt 0.856010 0.478607
vt 0.959865 0.479416
vt 0.856819 0.374751
vt 0.960674 0.375560
vt 0.857628 0.270895
vt 0.961484 0.271705
vt 0.026784 0.264421
vt 0.027593 0.160566
vt 0.131449 0.161375
vt 0.130639 0.265230
vt 0.235304 0.162184
vt 0.234495 0.266040
vt 0.339160 0.162994
vt 0.338351 0.266849
vt 0.443015 0.163803
vt 0.442206 0.267658
vt 0.546871 0.164612
vt 0.546062 0.268468
vt 0.650726 0.165421
vt 0.649917 0.269277
vt 0.754582 0.166231
vt 0.753773 0.270086
vt 0.025975 0.368277
vt 0.129830 0.369086
vt 0.233686 0.369895
vt 0.337541 0.370705
vt 0.441397 0.371514
vt 0.545252 0.372323
vt 0.649108 0.373132
vt 0.752963 0.373942
vt 0.025165 0.472132
vt 0.129021 0.472942
vt 0.232876 0.473751
vt 0.336732 0.474560
vt 0.440587 0.475369
vt 0.544443 0.476179
vt 0.648299 0.476988
vt 0.752154 0.477797
vt 0.024356 0.575988
vt 0.128212 0.576797
vt 0.232067 0.577606
vt 0.335923 0.578416
vt 0.439778 0.579225
vt 0.543634 0.580034
vt 0.647489 0.580843
vt 0.751345 0.581653
vt 0.100156 0.706045
vt 0.186943 0.706721
vt 0.273730 0.707397
vt 0.360517 0.708074
vt 0.447304 0.708750
vt 0.534091 0.709426
vt 0.620877 0.710102
vt 0.707664 0.710779
vt 0.171606 0.809451
vt 0.242337 0.810002
vt 0.313068 0.810553
vt 0.383799 0.811104
vt 0.454530 0.811655
vt 0.525261 0.812206
vt 0.595992 0.812757
vt 0.666723 0.813309
vt 0.240300 0.888422
vt 0.295630 0.888853
vt 0.350960 0.889284
vt 0.406290 0.889715
vt 0.461620 0.890147
vt 0.516949 0.890578
vt 0.572279 0.891009
vt 0.627609 0.891440
vt 0.310251 0.944300
vt 0.349941 0.944610
vt 0.389630 0.944919
vt 0.429319 0.945228
vt 0.469009 0.945538
vt 0.508698 0.945847
vt 0.548387 0.946156
vt 0.588077 0.946465
vt 0.028403 0.056710
vt 0.132258 0.057519
vt 0.236114 0.058329
vt 0.339969 0.059138
vt 0.443825 0.059947
vt 0.547680 0.060757
vt 0.651536 0.061566
vt 0.755391 0.062375
vn 0.0000 1.0000 0.0000
usemtl None
s off
f 100/1/1 36/2/1 4/3/1 13/4/1
f 21/5/1 44/6/1 20/7/1 3/8/1
f 44/6/1 52/9/1 19/10/1 20/7/1
f 52/9/1 60/11/1 18/12/1 19/10/1
f 60/11/1 68/13/1 17/14/1 18/12/1
f 68/13/1 76/15/1 16/16/1 17/14/1
f 76/15/1 84/17/1 15/18/1 16/16/1
f 84/17/1 92/19/1 14/20/1 15/18/1
f 92/19/1 100/1/1 13/4/1 14/20/1
f 11/21/1 12/22/1 93/23/1 85/24/1
f 85/24/1 93/23/1 94/25/1 86/26/1
f 86/26/1 94/25/1 95/27/1 87/28/1
f 87/28/1 95/27/1 96/29/1 88/30/1
f 88/30/1 96/29/1 97/31/1 89/32/1
f 89/32/1 97/31/1 98/33/1 90/34/1
f 90/34/1 98/33/1 99/35/1 91/36/1
f 91/36/1 99/35/1 100/1/1 92/19/1
f 10/37/1 11/21/1 85/24/1 77/38/1
f 77/38/1 85/24/1 86/26/1 78/39/1
f 78/39/1 86/26/1 87/28/1 79/40/1
f 79/40/1 87/28/1 88/30/1 80/41/1
f 80/41/1 88/30/1 89/32/1 81/42/1
f 81/42/1 89/32/1 90/34/1 82/43/1
f 82/43/1 90/34/1 91/36/1 83/44/1
f 83/44/1 91/36/1 92/19/1 84/17/1
f 9/45/1 10/37/1 77/38/1 69/46/1
f 69/46/1 77/38/1 78/39/1 70/47/1
f 70/47/1 78/39/1 79/40/1 71/48/1
f 71/48/1 79/40/1 80/41/1 72/49/1
f 72/49/1 80/41/1 81/42/1 73/50/1
f 73/50/1 81/42/1 82/43/1 74/51/1
f 74/51/1 82/43/1 83/44/1 75/52/1
f 75/52/1 83/44/1 84/17/1 76/15/1
f 8/53/1 9/45/1 69/46/1 61/54/1
f 61/54/1 69/46/1 70/47/1 62/55/1
f 62/55/1 70/47/1 71/48/1 63/56/1
f 63/56/1 71/48/1 72/49/1 64/57/1
f 64/57/1 72/49/1 73/50/1 65/58/1
f 65/58/1 73/50/1 74/51/1 66/59/1
f 66/59/1 74/51/1 75/52/1 67/60/1
f 67/60/1 75/52/1 76/15/1 68/13/1
f 7/61/1 8/53/1 61/54/1 53/62/1
f 53/62/1 61/54/1 62/55/1 54/63/1
f 54/63/1 62/55/1 63/56/1 55/64/1
f 55/64/1 63/56/1 64/57/1 56/65/1
f 56/65/1 64/57/1 65/58/1 57/66/1
f 57/66/1 65/58/1 66/59/1 58/67/1
f 58/67/1 66/59/1 67/60/1 59/68/1
f 59/68/1 67/60/1 68/13/1 60/11/1
f 6/69/1 7/61/1 53/62/1 45/70/1
f 45/70/1 53/62/1 54/63/1 46/71/1
f 46/71/1 54/63/1 55/64/1 47/72/1
f 47/72/1 55/64/1 56/65/1 48/73/1
f 48/73/1 56/65/1 57/66/1 49/74/1
f 49/74/1 57/66/1 58/67/1 50/75/1
f 50/75/1 58/67/1 59/68/1 51/76/1
f 51/76/1 59/68/1 60/11/1 52/9/1
f 5/77/1 6/69/1 45/70/1 37/78/1
f 37/78/1 45/70/1 46/71/1 38/79/1
f 38/79/1 46/71/1 47/72/1 39/80/1
f 39/80/1 47/72/1 48/73/1 40/81/1
f 40/81/1 48/73/1 49/74/1 41/82/1
f 41/82/1 49/74/1 50/75/1 42/83/1
f 42/83/1 50/75/1 51/76/1 43/84/1
f 43/84/1 51/76/1 52/9/1 44/6/1
f 1/85/1 5/77/1 37/78/1 28/86/1
f 28/86/1 37/78/1 38/79/1 27/87/1
f 27/87/1 38/79/1 39/80/1 26/88/1
f 26/88/1 39/80/1 40/81/1 25/89/1
f 25/89/1 40/81/1 41/82/1 24/90/1
f 24/90/1 41/82/1 42/83/1 23/91/1
f 23/91/1 42/83/1 43/84/1 22/92/1
f 22/92/1 43/84/1 44/6/1 21/5/1
f 12/22/1 2/93/1 29/94/1 93/23/1
f 93/23/1 29/94/1 30/95/1 94/25/1
f 94/25/1 30/95/1 31/96/1 95/27/1
f 95/27/1 31/96/1 32/97/1 96/29/1
f 96/29/1 32/97/1 33/98/1 97/31/1
f 97/31/1 33/98/1 34/99/1 98/33/1
f 98/33/1 34/99/1 35/100/1 99/35/1
f 99/35/1 35/100/1 36/2/1 100/1/1
