# Blender v2.90.1 OBJ File: ''
# www.blender.org
mtllib Cone.mtl
o Cylinder
v -0.034237 2.626809 -2.403513
v 0.000000 4.151392 -0.083029
v 0.016198 4.151392 -0.081434
v 0.465324 2.379543 -2.424241
v 0.031774 4.151392 -0.076709
v 0.887686 2.337297 -2.446671
v 0.046128 4.151392 -0.069037
v 1.263519 2.435716 -2.201946
v 0.058710 4.151392 -0.058711
v 1.801521 2.227942 -1.872601
v 0.069036 4.151392 -0.046129
v 2.120044 2.664851 -1.145223
v 0.076708 4.151392 -0.031775
v 2.495882 2.370104 -0.904089
v 0.081433 4.151392 -0.016199
v 2.244628 2.527420 -0.427779
v 0.083028 4.151392 -0.000001
v 1.941687 2.725395 -0.111998
v 0.081433 4.151392 0.016197
v 1.956926 2.479916 0.629703
v 0.076708 4.151392 0.031772
v 2.332760 2.257711 1.013445
v 0.069036 4.151392 0.046127
v 2.126005 2.196958 1.471294
v 0.058710 4.151392 0.058709
v 1.767658 2.198227 1.828268
v 0.046128 4.151392 0.069034
v 1.330451 2.406495 2.058773
v 0.031774 4.151392 0.076707
v 0.918905 2.634140 2.099164
v 0.016198 4.151392 0.081432
v 0.438420 2.527010 2.183876
v 0.000000 4.151392 0.083027
v -0.090836 2.235113 2.399815
v -0.016198 4.151392 0.081432
v -0.557659 2.064820 2.597373
v -0.031773 4.151392 0.076707
v -0.916070 2.382889 2.251473
v -0.046128 4.151392 0.069034
v -1.247390 2.576903 1.908221
v -0.058710 4.151392 0.058709
v -1.567712 2.820903 1.611710
v -0.069035 4.151392 0.046127
v -2.118412 2.304795 1.449422
v -0.076708 4.151392 0.031772
v -2.397311 2.212146 1.013443
v -0.081433 4.151392 0.016197
v -2.487259 1.995562 0.527583
v -0.083028 4.151392 -0.000001
v -2.255617 2.388015 0.007873
v -0.081433 4.151392 -0.016199
v -2.563763 2.217554 -0.514255
v -0.076708 4.151392 -0.031775
v -2.097681 2.442556 -0.793369
v -0.069035 4.151392 -0.046129
v -2.201945 2.277151 -1.416619
v -0.058710 4.151392 -0.058711
v -1.878067 2.151393 -1.823393
v -0.046128 4.151392 -0.069037
v -1.366040 2.494638 -1.993129
v -0.031773 4.151392 -0.076709
v -0.884245 2.619976 -2.045787
v -0.016198 4.151392 -0.081434
v -0.333715 2.768006 -2.007323
vt 1.000000 0.023438
vt 1.000000 1.000000
vt 0.968750 1.000000
vt 0.968750 0.023438
vt 0.937500 1.000000
vt 0.937500 0.023438
vt 0.906250 1.000000
vt 0.906250 0.023438
vt 0.875000 1.000000
vt 0.875000 0.023438
vt 0.843750 1.000000
vt 0.843750 0.023438
vt 0.812500 1.000000
vt 0.812500 0.023438
vt 0.781250 1.000000
vt 0.781250 0.023438
vt 0.750000 1.000000
vt 0.750000 0.023438
vt 0.718750 1.000000
vt 0.718750 0.023438
vt 0.687500 1.000000
vt 0.687500 0.023438
vt 0.656250 1.000000
vt 0.656250 0.023438
vt 0.625000 1.000000
vt 0.625000 0.023438
vt 0.593750 1.000000
vt 0.593750 0.023438
vt 0.562500 1.000000
vt 0.562500 0.023438
vt 0.531250 1.000000
vt 0.531250 0.023438
vt 0.500000 1.000000
vt 0.500000 0.023438
vt 0.468750 1.000000
vt 0.468750 0.023438
vt 0.437500 1.000000
vt 0.437500 0.023438
vt 0.406250 1.000000
vt 0.406250 0.023438
vt 0.375000 1.000000
vt 0.375000 0.023438
vt 0.343750 1.000000
vt 0.343750 0.023438
vt 0.312500 1.000000
vt 0.312500 0.023438
vt 0.281250 1.000000
vt 0.281250 0.023438
vt 0.250000 1.000000
vt 0.250000 0.023438
vt 0.218750 1.000000
vt 0.218750 0.023438
vt 0.187500 1.000000
vt 0.187500 0.023438
vt 0.156250 1.000000
vt 0.156250 0.023438
vt 0.125000 1.000000
vt 0.125000 0.023438
vt 0.093750 1.000000
vt 0.093750 0.023438
vt 0.062500 1.000000
vt 0.062500 0.023438
vt 0.031250 1.000000
vt 0.031250 0.023438
vt 0.000000 1.000000
vt 0.000000 0.023438
vn 0.3539 0.7783 -0.5187
vn 0.0533 0.8017 -0.5953
vn 0.1593 0.8112 -0.5626
vn 0.5099 0.7883 -0.3444
vn 0.2582 0.7773 -0.5737
vn 0.5977 0.8013 0.0272
vn 0.6045 0.7951 0.0487
vn 0.6090 0.7889 0.0823
vn 0.6013 0.7632 0.2364
vn 0.6864 0.6791 -0.2600
vn 0.5159 0.7882 0.3357
vn 0.4414 0.7833 0.4377
vn 0.5374 0.7744 0.3339
vn 0.4678 0.7925 0.3912
vn -0.0584 0.7852 0.6165
vn -0.1600 0.7645 0.6245
vn -0.0135 0.7709 0.6368
vn 0.0476 0.7645 0.6428
vn -0.1482 0.7964 0.5863
vn -0.0250 0.7691 0.6387
vn -0.6740 0.7386 -0.0175
vn -0.5754 0.7922 0.2032
vn -0.6760 0.7143 -0.1809
vn -0.6044 0.7439 0.2853
vn -0.6252 0.7724 0.1115
vn -0.5530 0.7826 -0.2860
vn -0.6167 0.7797 -0.1088
vn -0.3546 0.7795 -0.5163
vn -0.5894 0.7657 -0.2575
vn -0.2682 0.8133 -0.5163
vn -0.1795 0.8127 -0.5543
vn -0.3005 0.7984 -0.5218
usemtl None
s 1
f 1/1/1 2/2/1 3/3/1 4/4/1
f 4/4/2 3/3/2 5/5/2 6/6/2
f 6/6/3 5/5/3 7/7/3 8/8/3
f 8/8/4 7/7/4 9/9/4 10/10/4
f 10/10/5 9/9/5 11/11/5 12/12/5
f 12/12/6 11/11/6 13/13/6 14/14/6
f 14/14/7 13/13/7 15/15/7 16/16/7
f 16/16/8 15/15/8 17/17/8 18/18/8
f 18/18/9 17/17/9 19/19/9 20/20/9
f 20/20/10 19/19/10 21/21/10 22/22/10
f 22/22/11 21/21/11 23/23/11 24/24/11
f 24/24/12 23/23/12 25/25/12 26/26/12
f 26/26/13 25/25/13 27/27/13 28/28/13
f 28/28/14 27/27/14 29/29/14 30/30/14
f 30/30/15 29/29/15 31/31/15 32/32/15
f 32/32/16 31/31/16 33/33/16 34/34/16
f 34/34/17 33/33/17 35/35/17 36/36/17
f 36/36/18 35/35/18 37/37/18 38/38/18
f 38/38/19 37/37/19 39/39/19 40/40/19
f 40/40/20 39/39/20 41/41/20 42/42/20
f 42/42/21 41/41/21 43/43/21 44/44/21
f 44/44/22 43/43/22 45/45/22 46/46/22
f 46/46/23 45/45/23 47/47/23 48/48/23
f 48/48/24 47/47/24 49/49/24 50/50/24
f 50/50/25 49/49/25 51/51/25 52/52/25
f 52/52/26 51/51/26 53/53/26 54/54/26
f 54/54/27 53/53/27 55/55/27 56/56/27
f 56/56/28 55/55/28 57/57/28 58/58/28
f 58/58/29 57/57/29 59/59/29 60/60/29
f 60/60/30 59/59/30 61/61/30 62/62/30
f 62/62/31 61/61/31 63/63/31 64/64/31
f 64/64/32 63/63/32 2/65/32 1/66/32
