# Blender v2.90.1 OBJ File: ''
# www.blender.org
mtllib Cone.mtl
o Cylinder
v 0.015886 0.730128 1.115224
v 0.000000 1.153890 0.038525
v -0.007516 1.153890 0.037785
v -0.215909 0.661400 1.124842
v -0.014743 1.153890 0.035593
v -0.411884 0.649658 1.135249
v -0.021403 1.153890 0.032033
v -0.586270 0.677014 1.021698
v -0.027241 1.153890 0.027242
v -0.835901 0.619262 0.868882
v -0.032033 1.153890 0.021404
v -0.983695 0.740702 0.531381
v -0.035592 1.153890 0.014743
v -1.158083 0.658777 0.419495
v -0.037785 1.153890 0.007516
v -1.041502 0.702503 0.198488
v -0.038525 1.153890 0.000000
v -0.900938 0.757531 0.051967
v -0.037785 1.153890 -0.007516
v -0.908009 0.689299 -0.292181
v -0.035592 1.153890 -0.014742
v -1.082395 0.627536 -0.470236
v -0.032033 1.153890 -0.021403
v -0.986461 0.610650 -0.682677
v -0.027241 1.153890 -0.027241
v -0.820189 0.611003 -0.848312
v -0.021403 1.153890 -0.032032
v -0.617326 0.668891 -0.955266
v -0.014743 1.153890 -0.035592
v -0.426370 0.732166 -0.974007
v -0.007516 1.153890 -0.037784
v -0.203426 0.702389 -1.013313
v 0.000000 1.153890 -0.038525
v 0.042148 0.621255 -1.113509
v 0.007516 1.153890 -0.037784
v 0.258752 0.573922 -1.205175
v 0.014743 1.153890 -0.035592
v 0.425054 0.662330 -1.044678
v 0.021403 1.153890 -0.032032
v 0.578786 0.716257 -0.885410
v 0.027241 1.153890 -0.027241
v 0.727415 0.784077 -0.747830
v 0.032032 1.153890 -0.021403
v 0.982938 0.640624 -0.672528
v 0.035592 1.153890 -0.014742
v 1.112347 0.614872 -0.470235
v 0.037785 1.153890 -0.007516
v 1.154082 0.554671 -0.244797
v 0.038525 1.153890 0.000000
v 1.046601 0.663755 -0.003653
v 0.037785 1.153890 0.007516
v 1.189580 0.616375 0.238613
v 0.035592 1.153890 0.014743
v 0.973319 0.678915 0.368121
v 0.032032 1.153890 0.021404
v 1.021697 0.632940 0.657308
v 0.027241 1.153890 0.027242
v 0.871419 0.597985 0.846050
v 0.021403 1.153890 0.032033
v 0.633839 0.693391 0.924807
v 0.014743 1.153890 0.035593
v 0.410288 0.728229 0.949240
v 0.007516 1.153890 0.037785
v 0.154843 0.769375 0.931393
vt 1.000000 0.023438
vt 1.000000 1.000000
vt 0.968750 1.000000
vt 0.968750 0.023438
vt 0.937500 1.000000
vt 0.937500 0.023438
vt 0.906250 1.000000
vt 0.906250 0.023438
vt 0.875000 1.000000
vt 0.875000 0.023438
vt 0.843750 1.000000
vt 0.843750 0.023438
vt 0.812500 1.000000
vt 0.812500 0.023438
vt 0.781250 1.000000
vt 0.781250 0.023438
vt 0.750000 1.000000
vt 0.750000 0.023438
vt 0.718750 1.000000
vt 0.718750 0.023438
vt 0.687500 1.000000
vt 0.687500 0.023438
vt 0.656250 1.000000
vt 0.656250 0.023438
vt 0.625000 1.000000
vt 0.625000 0.023438
vt 0.593750 1.000000
vt 0.593750 0.023438
vt 0.562500 1.000000
vt 0.562500 0.023438
vt 0.531250 1.000000
vt 0.531250 0.023438
vt 0.500000 1.000000
vt 0.500000 0.023438
vt 0.468750 1.000000
vt 0.468750 0.023438
vt 0.437500 1.000000
vt 0.437500 0.023438
vt 0.406250 1.000000
vt 0.406250 0.023438
vt 0.375000 1.000000
vt 0.375000 0.023438
vt 0.343750 1.000000
vt 0.343750 0.023438
vt 0.312500 1.000000
vt 0.312500 0.023438
vt 0.281250 1.000000
vt 0.281250 0.023438
vt 0.250000 1.000000
vt 0.250000 0.023438
vt 0.218750 1.000000
vt 0.218750 0.023438
vt 0.187500 1.000000
vt 0.187500 0.023438
vt 0.156250 1.000000
vt 0.156250 0.023438
vt 0.125000 1.000000
vt 0.125000 0.023438
vt 0.093750 1.000000
vt 0.093750 0.023438
vt 0.062500 1.000000
vt 0.062500 0.023438
vt 0.031250 1.000000
vt 0.031250 0.023438
vt 0.000000 1.000000
vt 0.000000 0.023438
vn -0.2452 0.9004 0.3594
vn -0.0363 0.9131 0.4061
vn -0.1080 0.9181 0.3814
vn -0.3510 0.9059 0.2371
vn -0.1790 0.8998 0.3978
vn -0.4079 0.9128 -0.0185
vn -0.4142 0.9096 -0.0334
vn -0.4190 0.9062 -0.0567
vn -0.4209 0.8919 -0.1655
vn -0.5082 0.8394 0.1925
vn -0.3552 0.9058 -0.2311
vn -0.3049 0.9031 -0.3023
vn -0.3734 0.8982 -0.2320
vn -0.3211 0.9082 -0.2686
vn 0.0403 0.9042 -0.4253
vn 0.1119 0.8926 -0.4368
vn 0.0094 0.8962 -0.4435
vn -0.0333 0.8926 -0.4496
vn 0.1015 0.9103 -0.4014
vn 0.0174 0.8952 -0.4453
vn 0.4796 0.8774 0.0125
vn 0.3951 0.9080 -0.1395
vn 0.4890 0.8624 0.1308
vn 0.4286 0.8806 -0.2023
vn 0.4350 0.8971 -0.0775
vn 0.3821 0.9027 0.1976
vn 0.4270 0.9011 0.0754
vn 0.2455 0.9011 0.3575
vn 0.4119 0.8933 0.1799
vn 0.1816 0.9191 0.3496
vn 0.1216 0.9189 0.3754
vn 0.2055 0.9113 0.3568
usemtl None
s 1
f 1/1/1 2/2/1 3/3/1 4/4/1
f 4/4/2 3/3/2 5/5/2 6/6/2
f 6/6/3 5/5/3 7/7/3 8/8/3
f 8/8/4 7/7/4 9/9/4 10/10/4
f 10/10/5 9/9/5 11/11/5 12/12/5
f 12/12/6 11/11/6 13/13/6 14/14/6
f 14/14/7 13/13/7 15/15/7 16/16/7
f 16/16/8 15/15/8 17/17/8 18/18/8
f 18/18/9 17/17/9 19/19/9 20/20/9
f 20/20/10 19/19/10 21/21/10 22/22/10
f 22/22/11 21/21/11 23/23/11 24/24/11
f 24/24/12 23/23/12 25/25/12 26/26/12
f 26/26/13 25/25/13 27/27/13 28/28/13
f 28/28/14 27/27/14 29/29/14 30/30/14
f 30/30/15 29/29/15 31/31/15 32/32/15
f 32/32/16 31/31/16 33/33/16 34/34/16
f 34/34/17 33/33/17 35/35/17 36/36/17
f 36/36/18 35/35/18 37/37/18 38/38/18
f 38/38/19 37/37/19 39/39/19 40/40/19
f 40/40/20 39/39/20 41/41/20 42/42/20
f 42/42/21 41/41/21 43/43/21 44/44/21
f 44/44/22 43/43/22 45/45/22 46/46/22
f 46/46/23 45/45/23 47/47/23 48/48/23
f 48/48/24 47/47/24 49/49/24 50/50/24
f 50/50/25 49/49/25 51/51/25 52/52/25
f 52/52/26 51/51/26 53/53/26 54/54/26
f 54/54/27 53/53/27 55/55/27 56/56/27
f 56/56/28 55/55/28 57/57/28 58/58/28
f 58/58/29 57/57/29 59/59/29 60/60/29
f 60/60/30 59/59/30 61/61/30 62/62/30
f 62/62/31 61/61/31 63/63/31 64/64/31
f 64/64/32 63/63/32 2/65/32 1/66/32
