# Blender v2.90.1 OBJ File: ''
# www.blender.org
mtllib Eye.mtl
o Sphere
v 0.000000 2.595315 0.927051
v 0.000000 2.427051 1.763356
v 0.000000 1.763356 2.427051
v 0.000000 0.927051 2.853170
v 0.000000 -0.000000 3.000000
v -0.463526 2.595315 0.802850
v -0.881678 2.427051 1.527111
v -1.213526 1.763356 2.101888
v -1.426585 0.927051 2.470917
v -1.500000 -0.000000 2.598076
v -0.802851 2.595315 0.463525
v -1.527112 2.427051 0.881677
v -2.101889 1.763356 1.213525
v -2.470918 0.927051 1.426584
v -2.598077 -0.000000 1.499999
v -0.927052 2.595315 -0.000001
v -1.763357 2.427051 -0.000001
v -2.427052 1.763356 -0.000001
v -2.853170 0.927051 -0.000001
v -3.000001 -0.000000 -0.000001
v -0.802850 2.595315 -0.463527
v -1.527112 2.427051 -0.881679
v -2.101888 1.763356 -1.213527
v -2.470918 0.927051 -1.426586
v -2.598077 -0.000000 -1.500001
v -0.463526 2.595315 -0.802851
v -0.881678 2.427051 -1.527113
v -1.213526 1.763356 -2.101890
v -1.426585 0.927051 -2.470919
v -1.500000 -0.000000 -2.598078
v 0.000000 2.595315 -0.927053
v -0.000000 2.427051 -1.763358
v 0.000000 1.763356 -2.427053
v 0.000000 0.927051 -2.853171
v 0.000000 -0.000000 -3.000002
v 0.463526 2.595315 -0.802851
v 0.881678 2.427051 -1.527112
v 1.213526 1.763356 -2.101890
v 1.426585 0.927051 -2.470919
v 1.500001 -0.000000 -2.598078
v 0.000001 2.678180 -0.000001
v 0.802850 2.595315 -0.463527
v 1.527112 2.427051 -0.881679
v 2.101889 1.763356 -1.213527
v 2.470918 0.927051 -1.426586
v 2.598077 -0.000000 -1.500001
v 0.927052 2.595315 -0.000001
v 1.763356 2.427051 -0.000001
v 2.427052 1.763356 -0.000001
v 2.853170 0.927051 -0.000001
v 3.000001 -0.000000 -0.000001
v 0.802850 2.595315 0.463525
v 1.527111 2.427051 0.881677
v 2.101888 1.763356 1.213525
v 2.470918 0.927051 1.426584
v 2.598077 -0.000000 1.500000
v 0.463526 2.595315 0.802850
v 0.881678 2.427051 1.527110
v 1.213526 1.763356 2.101887
v 1.426585 0.927051 2.470917
v 1.500000 -0.000000 2.598076
vt 0.144016 0.592606
vt 0.209772 0.575248
vt 0.234581 0.640118
vt 0.174896 0.672403
vt 0.081343 0.607840
vt 0.117624 0.701921
vt 0.700132 0.675940
vt 0.652205 0.498202
vt 0.782581 0.628164
vt 0.015250 0.623850
vt 0.057167 0.732975
vt 0.743899 0.840408
vt 0.902717 0.748714
vt 0.273906 0.697169
vt 0.223724 0.742576
vt 0.175020 0.784804
vt 0.830095 0.545565
vt 0.123450 0.829227
vt 0.994411 0.589896
vt 0.325573 0.743023
vt 0.288045 0.799112
vt 0.250602 0.852001
vt 0.829943 0.450274
vt 0.210497 0.907575
vt 0.994411 0.406508
vt 0.782167 0.367826
vt 0.902717 0.247690
vt 0.386811 0.774376
vt 0.365248 0.838469
vt 0.341238 0.900091
vt 0.313882 0.964537
vt 0.446602 0.928655
vt 0.429011 0.999933
vt 0.699567 0.320312
vt 0.743898 0.155996
vt 0.454236 0.786666
vt 0.454500 0.857140
vt 0.433655 0.067167
vt 0.448678 0.138683
vt 0.357696 0.164906
vt 0.331019 0.103301
vt 0.604277 0.320463
vt 0.411432 0.000067
vt 0.301996 0.041300
vt 0.560511 0.155996
vt 0.454500 0.213445
vt 0.384453 0.230609
vt 0.280968 0.209188
vt 0.242226 0.156288
vt 0.521829 0.368239
vt 0.201445 0.101400
vt 0.401692 0.247690
vt 0.322357 0.264864
vt 0.270795 0.312726
vt 0.217806 0.268904
vt 0.168316 0.226651
vt 0.474315 0.450839
vt 0.116268 0.182336
vt 0.309999 0.406508
vt 0.232186 0.371187
vt 0.170629 0.341206
vt 0.112851 0.311742
vt 0.474466 0.546130
vt 0.052016 0.280719
vt 0.309999 0.589896
vt 0.078845 0.407184
vt 0.012537 0.391260
vt 0.522242 0.628578
vt 0.401693 0.748714
vt 0.208479 0.436915
vt 0.141777 0.422272
vt 0.604842 0.676092
vt 0.068160 0.507744
vt 0.000067 0.507803
vt 0.560511 0.840408
vt 0.200889 0.506226
vt 0.132758 0.507652
vn -0.1862 0.6947 0.6947
vn -0.2322 0.4416 0.8666
vn -0.0238 0.9957 0.0890
vn -0.2558 0.1512 0.9548
vn -0.0528 0.9790 0.1970
vn -0.5086 0.6947 0.5086
vn -0.6344 0.4416 0.6344
vn -0.0652 0.9957 0.0652
vn -0.6990 0.1512 0.6990
vn -0.1442 0.9790 0.1442
vn -0.6947 0.6947 0.1862
vn -0.8666 0.4416 0.2322
vn -0.0890 0.9957 0.0238
vn -0.9548 0.1512 0.2558
vn -0.1970 0.9790 0.0528
vn -0.1970 0.9790 -0.0528
vn -0.6947 0.6947 -0.1862
vn -0.8666 0.4416 -0.2322
vn -0.0890 0.9957 -0.0238
vn -0.9548 0.1512 -0.2558
vn -0.6990 0.1512 -0.6990
vn -0.1442 0.9790 -0.1442
vn -0.5086 0.6947 -0.5086
vn -0.6344 0.4416 -0.6344
vn -0.0652 0.9957 -0.0652
vn -0.2322 0.4416 -0.8666
vn -0.0238 0.9957 -0.0890
vn -0.2558 0.1512 -0.9548
vn -0.0528 0.9790 -0.1970
vn -0.1862 0.6947 -0.6947
vn 0.2322 0.4416 -0.8666
vn 0.0238 0.9957 -0.0890
vn 0.2558 0.1512 -0.9548
vn 0.0528 0.9790 -0.1970
vn 0.1862 0.6947 -0.6947
vn 0.5086 0.6947 -0.5086
vn 0.6344 0.4416 -0.6344
vn 0.0652 0.9957 -0.0652
vn 0.6990 0.1512 -0.6990
vn 0.1442 0.9790 -0.1442
vn 0.6947 0.6947 -0.1862
vn 0.8666 0.4416 -0.2322
vn 0.0890 0.9957 -0.0238
vn 0.9548 0.1512 -0.2558
vn 0.1970 0.9790 -0.0528
vn 0.9548 0.1512 0.2558
vn 0.1970 0.9790 0.0528
vn 0.6947 0.6947 0.1862
vn 0.8666 0.4416 0.2322
vn 0.0890 0.9957 0.0238
vn 0.0652 0.9957 0.0652
vn 0.6990 0.1512 0.6990
vn 0.1442 0.9790 0.1442
vn 0.5086 0.6947 0.5086
vn 0.6344 0.4416 0.6344
vn 0.2322 0.4416 0.8666
vn 0.0238 0.9957 0.0890
vn 0.2558 0.1512 0.9548
vn 0.0528 0.9790 0.1970
vn 0.1862 0.6947 0.6947
usemtl None
s off
f 3/1/1 2/2/1 7/3/1 8/4/1
f 4/5/2 3/1/2 8/4/2 9/6/2
f 1/7/3 41/8/3 6/9/3
f 5/10/4 4/5/4 9/6/4 10/11/4
f 2/12/5 1/7/5 6/9/5 7/13/5
f 8/4/6 7/3/6 12/14/6 13/15/6
f 9/6/7 8/4/7 13/15/7 14/16/7
f 6/9/8 41/8/8 11/17/8
f 10/11/9 9/6/9 14/16/9 15/18/9
f 7/13/10 6/9/10 11/17/10 12/19/10
f 13/15/11 12/14/11 17/20/11 18/21/11
f 14/16/12 13/15/12 18/21/12 19/22/12
f 11/17/13 41/8/13 16/23/13
f 15/18/14 14/16/14 19/22/14 20/24/14
f 12/19/15 11/17/15 16/23/15 17/25/15
f 17/25/16 16/23/16 21/26/16 22/27/16
f 18/21/17 17/20/17 22/28/17 23/29/17
f 19/22/18 18/21/18 23/29/18 24/30/18
f 16/23/19 41/8/19 21/26/19
f 20/24/20 19/22/20 24/30/20 25/31/20
f 25/31/21 24/30/21 29/32/21 30/33/21
f 22/27/22 21/26/22 26/34/22 27/35/22
f 23/29/23 22/28/23 27/36/23 28/37/23
f 24/30/24 23/29/24 28/37/24 29/32/24
f 21/26/25 41/8/25 26/34/25
f 29/38/26 28/39/26 33/40/26 34/41/26
f 26/34/27 41/8/27 31/42/27
f 30/43/28 29/38/28 34/41/28 35/44/28
f 27/35/29 26/34/29 31/42/29 32/45/29
f 28/39/30 27/46/30 32/47/30 33/40/30
f 34/41/31 33/40/31 38/48/31 39/49/31
f 31/42/32 41/8/32 36/50/32
f 35/44/33 34/41/33 39/49/33 40/51/33
f 32/45/34 31/42/34 36/50/34 37/52/34
f 33/40/35 32/47/35 37/53/35 38/48/35
f 38/48/36 37/53/36 43/54/36 44/55/36
f 39/49/37 38/48/37 44/55/37 45/56/37
f 36/50/38 41/8/38 42/57/38
f 40/51/39 39/49/39 45/56/39 46/58/39
f 37/52/40 36/50/40 42/57/40 43/59/40
f 44/55/41 43/54/41 48/60/41 49/61/41
f 45/56/42 44/55/42 49/61/42 50/62/42
f 42/57/43 41/8/43 47/63/43
f 46/58/44 45/56/44 50/62/44 51/64/44
f 43/59/45 42/57/45 47/63/45 48/65/45
f 51/64/46 50/62/46 55/66/46 56/67/46
f 48/65/47 47/63/47 52/68/47 53/69/47
f 49/61/48 48/60/48 53/70/48 54/71/48
f 50/62/49 49/61/49 54/71/49 55/66/49
f 47/63/50 41/8/50 52/68/50
f 52/68/51 41/8/51 57/72/51
f 56/67/52 55/66/52 60/73/52 61/74/52
f 53/69/53 52/68/53 57/72/53 58/75/53
f 54/71/54 53/70/54 58/76/54 59/77/54
f 55/66/55 54/71/55 59/77/55 60/73/55
f 60/73/56 59/77/56 3/1/56 4/5/56
f 57/72/57 41/8/57 1/7/57
f 61/74/58 60/73/58 4/5/58 5/10/58
f 58/75/59 57/72/59 1/7/59 2/12/59
f 59/77/60 58/76/60 2/2/60 3/1/60
