# Blender v2.90.1 OBJ File: ''
# www.blender.org
mtllib Area.mtl
o Cylinder
v 0.000000 -0.350000 2.960000
v 0.000000 0.350000 2.960000
v -1.203941 -0.350000 2.704094
v -1.203941 0.350000 2.704094
v -2.199709 -0.350000 1.980626
v -2.199709 0.350000 1.980626
v -2.815127 -0.350000 0.914690
v -2.815127 0.350000 0.914690
v -2.943785 -0.350000 -0.309404
v -2.943785 0.350000 -0.309404
v -2.563435 -0.350000 -1.480000
v -2.563435 0.350000 -1.480000
v -1.739844 -0.350000 -2.394691
v -1.739844 0.350000 -2.394691
v -0.615418 -0.350000 -2.895317
v -0.615418 0.350000 -2.895317
v 0.615419 -0.350000 -2.895317
v 0.615419 0.350000 -2.895317
v 1.739845 -0.350000 -2.394690
v 1.739845 0.350000 -2.394690
v 2.563435 -0.350000 -1.480000
v 2.563435 0.350000 -1.480000
v 2.943785 -0.350000 -0.309404
v 2.943785 0.350000 -0.309404
v 2.815127 -0.350000 0.914691
v 2.815127 0.350000 0.914691
v 2.199708 -0.350000 1.980627
v 2.199708 0.350000 1.980627
v 1.203940 -0.350000 2.704095
v 1.203940 0.350000 2.704095
vt 1.000000 0.000000
vt 0.933333 0.000000
vt 0.933333 1.000000
vt 1.000000 1.000000
vt 0.866667 0.000000
vt 0.866667 1.000000
vt 0.800000 0.000000
vt 0.800000 1.000000
vt 0.733333 0.000000
vt 0.733333 1.000000
vt 0.666667 0.000000
vt 0.666667 1.000000
vt 0.600000 0.000000
vt 0.600000 1.000000
vt 0.533333 0.000000
vt 0.533333 1.000000
vt 0.466667 0.000000
vt 0.466667 1.000000
vt 0.400000 0.000000
vt 0.400000 1.000000
vt 0.333333 0.000000
vt 0.333333 1.000000
vt 0.266667 0.000000
vt 0.266667 1.000000
vt 0.200000 0.000000
vt 0.200000 1.000000
vt 0.133333 0.000000
vt 0.133333 1.000000
vt 0.066667 0.000000
vt 0.066667 1.000000
vt 0.000000 0.000000
vt 0.000000 1.000000
vn 0.2079 0.0000 -0.9781
vn 0.5878 0.0000 -0.8090
vn 0.8660 0.0000 -0.5000
vn 0.9945 0.0000 -0.1045
vn 0.9511 0.0000 0.3090
vn 0.7431 0.0000 0.6691
vn 0.4067 0.0000 0.9135
vn -0.0000 0.0000 1.0000
vn -0.4067 0.0000 0.9135
vn -0.7431 0.0000 0.6691
vn -0.9511 0.0000 0.3090
vn -0.9945 0.0000 -0.1045
vn -0.8660 0.0000 -0.5000
vn -0.5878 0.0000 -0.8090
vn -0.2079 0.0000 -0.9781
usemtl None
s off
f 1/1/1 3/2/1 4/3/1 2/4/1
f 3/2/2 5/5/2 6/6/2 4/3/2
f 5/5/3 7/7/3 8/8/3 6/6/3
f 7/7/4 9/9/4 10/10/4 8/8/4
f 9/9/5 11/11/5 12/12/5 10/10/5
f 11/11/6 13/13/6 14/14/6 12/12/6
f 13/13/7 15/15/7 16/16/7 14/14/7
f 15/15/8 17/17/8 18/18/8 16/16/8
f 17/17/9 19/19/9 20/20/9 18/18/9
f 19/19/10 21/21/10 22/22/10 20/20/10
f 21/21/11 23/23/11 24/24/11 22/22/11
f 23/23/12 25/25/12 26/26/12 24/24/12
f 25/25/13 27/27/13 28/28/13 26/26/13
f 27/27/14 29/29/14 30/30/14 28/28/14
f 29/29/15 1/31/15 2/32/15 30/30/15
