# Blender v2.90.1 OBJ File: 'TerrainEnviroment.blend'
# www.blender.org
mtllib RockWater2.mtl
o Cylinder
v 7.047709 -1.283905 41.015038
v 7.173894 0.150619 41.408188
v 6.473777 -1.494462 40.601391
v 6.468538 -0.008480 41.169838
v 6.220509 -1.621188 40.287018
v 6.134315 0.321423 40.300690
v 6.737219 -1.712847 39.810760
v 6.520632 0.338173 39.524128
v 7.134315 -1.495001 39.300690
v 7.134315 0.653657 39.300690
v 7.535166 -1.502068 39.826969
v 7.841423 1.311968 39.593582
v 7.573749 -1.538575 40.288696
v 8.134315 1.111069 40.300690
v 7.551255 -1.231079 40.717251
v 7.841423 0.504999 41.007797
v 7.134315 -0.995001 41.300690
v 7.086808 -0.584309 41.398052
v 7.134315 0.004999 41.423107
v 6.379702 -0.084309 41.227577
v 6.427209 -0.495001 41.007797
v 6.554708 -0.910016 41.045418
v 6.134315 0.004999 40.300690
v 6.340736 -0.417952 40.414444
v 6.340736 -0.917952 40.414444
v 6.356280 -0.194722 39.512913
v 6.586864 -0.348105 39.586720
v 6.586864 -0.848105 39.586720
v 7.298032 -0.112350 39.115047
v 7.176421 -0.529707 39.270798
v 7.012161 -0.995001 39.300690
v 7.680329 0.085223 39.492569
v 7.841423 -0.495001 39.500053
v 7.841423 -0.995001 39.593582
v 8.064592 0.127613 40.310814
v 8.189432 -0.579481 40.307526
v 8.233498 -1.150640 40.345291
v 7.841423 0.004999 41.130211
v 7.841423 -0.495001 41.007797
v 7.853323 -1.036487 41.056965
vt 1.000000 0.875000
vt 1.000000 1.000000
vt 0.875000 1.000000
vt 0.875000 0.875000
vt 0.750000 1.000000
vt 0.750000 0.875000
vt 0.625000 1.000000
vt 0.625000 0.875000
vt 0.500000 1.000000
vt 0.500000 0.875000
vt 0.375000 1.000000
vt 0.375000 0.875000
vt 0.250000 1.000000
vt 0.250000 0.875000
vt 0.419706 0.419706
vt 0.250000 0.490000
vt 0.080294 0.419706
vt 0.010000 0.250000
vt 0.080294 0.080294
vt 0.250000 0.010000
vt 0.419706 0.080294
vt 0.490000 0.250000
vt 0.125000 1.000000
vt 0.125000 0.875000
vt 0.000000 1.000000
vt 0.000000 0.875000
vt 0.125000 0.500000
vt 0.125000 0.625000
vt 0.000000 0.625000
vt 0.000000 0.500000
vt 0.125000 0.750000
vt 0.000000 0.750000
vt 0.250000 0.500000
vt 0.250000 0.625000
vt 0.250000 0.750000
vt 0.375000 0.500000
vt 0.375000 0.625000
vt 0.375000 0.750000
vt 0.500000 0.500000
vt 0.500000 0.625000
vt 0.500000 0.750000
vt 0.625000 0.500000
vt 0.625000 0.625000
vt 0.625000 0.750000
vt 0.750000 0.500000
vt 0.750000 0.625000
vt 0.750000 0.750000
vt 0.875000 0.500000
vt 0.875000 0.625000
vt 0.875000 0.750000
vt 1.000000 0.500000
vt 1.000000 0.625000
vt 1.000000 0.750000
vn -0.3240 0.4592 0.8271
vn -0.9010 0.2556 0.3504
vn -0.9093 0.1809 -0.3747
vn -0.3976 0.1377 -0.9072
vn 0.4448 0.1281 -0.8864
vn 0.9082 -0.0779 -0.4113
vn -0.3942 0.8772 0.2743
vn 0.9496 -0.0167 0.3131
vn 0.4097 0.1657 0.8970
vn 0.2300 -0.8339 0.5018
vn 0.3957 -0.0218 0.9181
vn 0.4262 -0.1396 0.8938
vn 0.3325 -0.8403 0.4282
vn 0.8905 0.0798 0.4480
vn 0.9339 0.0599 0.3525
vn 0.6083 -0.7218 -0.3302
vn 0.9023 -0.0157 -0.4307
vn 0.8957 0.1976 -0.3983
vn 0.5306 -0.2822 -0.7992
vn 0.3284 -0.1746 -0.9283
vn 0.5173 -0.1182 -0.8476
vn -0.6626 -0.2483 -0.7066
vn -0.4955 0.0575 -0.8667
vn -0.4075 -0.4067 -0.8177
vn -0.8625 -0.0476 -0.5038
vn -0.9585 0.0000 -0.2850
vn -0.7581 -0.6298 -0.1690
vn -0.8914 -0.0601 0.4492
vn -0.9652 -0.1250 0.2298
vn -0.9363 -0.3069 0.1708
vn -0.3726 -0.5519 0.7461
vn -0.4738 -0.1630 0.8654
vn -0.3733 -0.2206 0.9011
usemtl None
s off
f 19/1/1 2/2/1 4/3/1 20/4/1
f 20/4/2 4/3/2 6/5/2 23/6/2
f 23/6/3 6/5/3 8/7/3 26/8/3
f 26/8/4 8/7/4 10/9/4 29/10/4
f 29/10/5 10/9/5 12/11/5 32/12/5
f 32/12/6 12/11/6 14/13/6 35/14/6
f 4/15/7 2/16/7 16/17/7 14/18/7 12/19/7 10/20/7 8/21/7 6/22/7
f 35/14/8 14/13/8 16/23/8 38/24/8
f 38/24/9 16/23/9 2/25/9 19/26/9
f 15/27/10 40/28/10 17/29/10 1/30/10
f 40/28/11 39/31/11 18/32/11 17/29/11
f 39/31/12 38/24/12 19/26/12 18/32/12
f 13/33/13 37/34/13 40/28/13 15/27/13
f 37/34/14 36/35/14 39/31/14 40/28/14
f 36/35/15 35/14/15 38/24/15 39/31/15
f 11/36/16 34/37/16 37/34/16 13/33/16
f 34/37/17 33/38/17 36/35/17 37/34/17
f 33/38/18 32/12/18 35/14/18 36/35/18
f 9/39/19 31/40/19 34/37/19 11/36/19
f 31/40/20 30/41/20 33/38/20 34/37/20
f 30/41/21 29/10/21 32/12/21 33/38/21
f 7/42/22 28/43/22 31/40/22 9/39/22
f 28/43/23 27/44/23 30/41/23 31/40/23
f 27/44/24 26/8/24 29/10/24 30/41/24
f 5/45/25 25/46/25 28/43/25 7/42/25
f 25/46/26 24/47/26 27/44/26 28/43/26
f 24/47/27 23/6/27 26/8/27 27/44/27
f 3/48/28 22/49/28 25/46/28 5/45/28
f 22/49/29 21/50/29 24/47/29 25/46/29
f 21/50/30 20/4/30 23/6/30 24/47/30
f 1/51/31 17/52/31 22/49/31 3/48/31
f 17/52/32 18/53/32 21/50/32 22/49/32
f 18/53/33 19/1/33 20/4/33 21/50/33
