# Blender v2.90.1 OBJ File: ''
# www.blender.org
mtllib Cube.mtl
o Cube_Cube.001
v 1.000000 -1.000000 -1.000000
v 1.000000 1.000000 -1.000000
v 1.000000 -1.000000 1.000000
v 1.000000 1.000000 1.000000
v -1.000000 -1.000000 -1.000000
v -1.000000 1.000000 -1.000000
v -1.000000 -1.000000 1.000000
v -1.000000 1.000000 1.000000
vt 0.242654 0.007620
vt 0.241846 0.991970
vt -0.008129 0.991765
vt -0.007321 0.007415
vt 0.992578 0.008235
vt 0.991771 0.992585
vt 0.741796 0.992380
vt 0.742604 0.008030
vt 0.491821 0.992175
vt 0.492629 0.007825
vn 1.0000 0.0000 0.0000
vn 0.0000 0.0000 1.0000
vn -1.0000 0.0000 0.0000
vn 0.0000 0.0000 -1.0000
usemtl None
s off
f 1/1/1 2/2/1 4/3/1 3/4/1
f 3/5/2 4/6/2 8/7/2 7/8/2
f 7/8/3 8/7/3 6/9/3 5/10/3
f 5/10/4 6/9/4 2/2/4 1/1/4
